<svg width="1024" height="512" viewBox="0 0 1024 512" fill="none" xmlns="http://www.w3.org/2000/svg">
<g id="logo-text">
<path d="M99 314.676V224.557C98.99 210.556 106.933 197.765 119.486 191.565C132.039 185.366 147.025 186.833 158.136 195.351L146.664 209.734C141.075 205.635 133.656 205.025 127.472 208.157C121.289 211.289 117.391 217.631 117.389 224.562V233.758H146.815V250.311H117.391V314.676H99Z" fill="white"/>
<path d="M170.581 314.676V187.775H188.972V314.676H170.581Z" fill="white"/>
<path d="M202.698 272.06C202.698 247.477 222.626 227.549 247.208 227.549C257.473 227.533 267.426 231.082 275.367 237.588V229.366H293.535V314.756H275.367V306.532C262.053 317.409 243.665 319.644 228.132 312.277C212.599 304.908 202.698 289.253 202.699 272.061L202.698 272.06ZM221.638 272.06C221.638 286.182 233.086 297.63 247.208 297.63C261.33 297.63 272.778 286.182 272.778 272.06C272.778 257.938 261.33 246.49 247.208 246.49C233.086 246.49 221.638 257.938 221.638 272.06Z" fill="white"/>
<path d="M438.501 314.676V269.299H438.482C438.493 268.997 438.501 268.695 438.501 268.392C438.501 255.861 428.343 245.703 415.812 245.703C403.281 245.703 393.123 255.861 393.123 268.392C393.123 268.695 393.123 268.998 393.14 269.299H393.123V314.676H374.972V269.299H374.953C374.964 268.997 374.972 268.695 374.972 268.392C374.972 255.861 364.814 245.703 352.283 245.703C339.752 245.703 329.594 255.861 329.594 268.392C329.594 268.695 329.594 268.998 329.611 269.299H329.603V314.676H311.451V229.366H329.602V234.429C347.167 222.698 370.778 226.293 384.056 242.719C394.829 229.388 412.781 224.203 429.003 229.736C445.225 235.27 456.265 250.346 456.644 267.482V314.676H438.501Z" fill="white"/>
<path d="M472.096 197.891C472.172 192.359 476.678 187.913 482.211 187.913C487.744 187.913 492.251 192.359 492.326 197.891C492.326 203.477 487.8 208.005 482.214 208.007C479.53 208.007 476.957 206.942 475.06 205.045C473.163 203.148 472.097 200.575 472.097 197.891H472.096ZM473.016 314.676V228.237H491.407V314.676H473.016Z" fill="white"/>
<path d="M572.913 314.676V269.299H572.894C572.905 268.997 572.913 268.695 572.913 268.39C572.913 255.859 562.756 245.701 550.225 245.701C537.694 245.701 527.536 255.859 527.536 268.39C527.536 268.695 527.536 268.996 527.553 269.299H527.536V314.676H509.384V229.365H527.535V234.428C539.932 226.15 555.852 225.282 569.075 232.163C582.297 239.043 590.723 252.581 591.056 267.483V314.677H572.915L572.913 314.676Z" fill="white"/>
<path d="M609.313 334.405L625.255 325.2C631.243 335.73 643.571 340.908 655.283 337.812C666.995 334.715 675.152 324.12 675.152 312.006V307.858C659.382 319.437 637.943 319.528 622.076 308.08C606.21 296.633 599.534 276.26 605.55 257.643C611.566 239.027 628.9 226.412 648.466 226.414C658.068 226.4 667.423 229.464 675.156 235.158V228.255H693.562V312.009C693.56 332.454 679.805 350.34 660.047 355.592C640.288 360.845 619.468 352.15 609.313 334.406V334.405ZM621.776 271.511C621.776 278.589 624.588 285.379 629.594 290.383C634.599 295.388 641.389 298.2 648.467 298.199C663.119 298.075 674.931 286.163 674.931 271.51C674.931 256.857 663.119 244.945 648.467 244.822C633.729 244.824 621.781 256.772 621.78 271.511H621.776Z" fill="white"/>
<path d="M795.632 272.112C795.632 296.694 775.703 316.623 751.121 316.623C726.539 316.623 706.61 296.694 706.61 272.112C706.61 247.53 726.538 227.601 751.121 227.601C775.704 227.601 795.632 247.529 795.632 272.112ZM776.691 272.112C776.691 257.99 765.243 246.542 751.121 246.542C736.999 246.542 725.551 257.99 725.551 272.112C725.551 286.234 736.999 297.682 751.121 297.682C765.243 297.682 776.691 286.234 776.691 272.112Z" fill="white"/>
</g>
<path d="M853.989 154.233C823.217 158.245 807.634 186.371 828.655 220.047C829.142 220.827 830.244 220.927 830.883 220.266C835.017 215.98 838.886 213.573 843.252 209.331C844.147 208.461 844.314 207.076 843.665 206.01C827.673 179.747 848.626 165.942 858.081 179.579C861.629 184.697 861.933 193.224 867.288 201.484C867.883 202.401 869.262 202.149 869.511 201.085C870.302 197.692 872.055 194.229 874.524 190.714C874.889 190.194 875.604 190.069 876.145 190.403C880.264 192.94 883.933 193.937 887.392 194.219C887.906 194.261 888.401 193.969 888.622 193.503C899.894 169.711 873.195 151.73 853.989 154.234V154.233ZM876.35 180.708C874.883 180.708 873.693 179.519 873.693 178.051C873.693 176.583 874.882 175.394 876.35 175.394C877.818 175.394 879.007 176.583 879.007 178.051C879.007 179.519 877.818 180.708 876.35 180.708Z" fill="#F04F6E"/>
<path d="M828.256 289.686C828.123 289.77 827.964 289.513 828.099 289.432C828.199 289.368 828.262 289.555 828.236 289.67L828.256 289.686Z" fill="#010101"/>
<path d="M922.833 301.963C891.397 243.023 844.835 283.119 832.071 266.87C829.345 263.4 830.364 258.231 833.068 254.743C866.245 211.941 927.665 247.748 925.033 301.399C924.976 302.557 923.378 302.986 922.832 301.964L922.833 301.963Z" fill="#FF92A5"/>
<path d="M888.474 327.922C886.599 294.394 850.228 299.865 850.495 281.608C850.535 278.892 852.2 276.463 854.705 275.414C885.452 262.545 907.498 300.345 889.823 328.286C889.442 328.889 888.513 328.634 888.473 327.921L888.474 327.922Z" fill="#F6ADAD"/>
<path d="M861.037 304.849C839.785 298.672 850.494 276.721 819.976 271.998C816.193 271.413 811.363 271.408 810.882 275.206C807.116 304.987 833.033 323.102 861.288 307.055C862.205 306.534 862.049 305.143 861.036 304.849H861.037Z" fill="#F6ADAD"/>
<path d="M809.269 257.063C809.192 262.948 811.982 263.906 815.469 263.756C820.589 263.536 826.577 259.363 828.876 254.783C836.389 239.816 855.282 216.315 855.15 204.083C855.136 202.82 853.483 202.379 852.861 203.478C842.657 221.51 811.032 239.401 809.27 257.062L809.269 257.063Z" fill="#FF92A5"/>
<path d="M871.839 217.017C871.392 219.835 870.048 222.496 868.463 224.868C862.505 233.789 883.742 231.888 887.208 227.004C893.255 218.483 886.57 211.642 887.413 198.697C887.437 198.325 887.171 198.013 886.8 197.98C883.683 197.704 880.51 196.694 877.284 194.988C876.848 194.758 876.261 194.886 875.992 195.299C874.357 197.809 873.048 200.545 872.116 203.542C871.709 204.849 871.563 206.224 871.678 207.588C872.067 212.217 872.472 213.028 871.84 217.017H871.839Z" fill="#312E8E"/>
</svg>